REM MD5 929579d7a51728056f1b09ca4e61a706
FILE "UEFA Champions League - Season 2000-2001 (Europe).bin" BINARY
  TRACK 01 MODE2/2352
    INDEX 01 00:00:00
  TRACK 02 AUDIO
    INDEX 00 39:46:45
    INDEX 01 39:48:45
  TRACK 03 AUDIO
    INDEX 00 43:32:10
    INDEX 01 43:34:10
  TRACK 04 AUDIO
    INDEX 00 47:09:18
    INDEX 01 47:11:18
REM LEADOUT 50:46:26
